HIERARCHY
ROOT SpineBase
{
  OFFSET 0.000000 0.000000 0.000000
  CHANNELS 6 Xposition Yposition Zposition Zrotation Xrotation Yrotation
  JOINT SpineMid
  {
    OFFSET 0.000000 22.635466 0.000000
    CHANNELS 3 Zrotation Xrotation Yrotation
    JOINT SpineShoulder
    {
      OFFSET -0.310186 17.023237 -0.655881
      CHANNELS 3 Zrotation Xrotation Yrotation
      JOINT Neck
      {
        OFFSET -0.190605 5.735370 -0.503651
        CHANNELS 3 Zrotation Xrotation Yrotation
        JOINT Head
        {
          OFFSET -1.214638 11.738180 2.292611
          CHANNELS 3 Zrotation Xrotation Yrotation
          End Site
          {
            OFFSET 0 0 0
          }
        }
      }
      JOINT ShoulderLeft
      {
        OFFSET -11.754128 -2.038316 3.689586
        CHANNELS 3 Zrotation Xrotation Yrotation
        JOINT ElbowLeft
        {
          OFFSET -4.665811 -21.720160 -4.557140
          CHANNELS 3 Zrotation Xrotation Yrotation
          JOINT WristLeft
          {
            OFFSET -3.509069 -10.311727 -15.735555
            CHANNELS 3 Zrotation Xrotation Yrotation
            JOINT HandLeft
            {
              OFFSET -0.649426 -1.312470 -4.433244
              CHANNELS 3 Zrotation Xrotation Yrotation
              JOINT HandTipLeft
              {
                OFFSET -1.325716 -0.718827 -4.388003
                CHANNELS 3 Zrotation Xrotation Yrotation
                End Site
                {
                  OFFSET 0 0 0
                }
              }
              JOINT ThumbLeft
              {
                OFFSET -0.315165 5.590826 4.082446
                CHANNELS 3 Zrotation Xrotation Yrotation
                End Site
                {
                  OFFSET 0 0 0
                }
              }
            }
          }
        }
      }
      JOINT ShoulderRight
      {
        OFFSET 10.001922 -1.140067 -8.221996
        CHANNELS 3 Zrotation Xrotation Yrotation
        JOINT ElbowRight
        {
          OFFSET -1.430911 -19.072951 -6.171901
          CHANNELS 3 Zrotation Xrotation Yrotation
          JOINT WristRight
          {
            OFFSET -11.559173 -11.498783 -10.988078
            CHANNELS 3 Zrotation Xrotation Yrotation
            JOINT HandRight
            {
              OFFSET -2.729374 -0.720637 -1.380694
              CHANNELS 3 Zrotation Xrotation Yrotation
              JOINT HandTipRight
              {
                OFFSET -5.956878 -1.284940 -5.090961
                CHANNELS 3 Zrotation Xrotation Yrotation
                End Site
                {
                  OFFSET 0 0 0
                }
              }
              JOINT ThumbRight
              {
                OFFSET 0.788054 -1.409881 -2.983069
                CHANNELS 3 Zrotation Xrotation Yrotation
                End Site
                {
                  OFFSET 0 0 0
                }
              }
            }
          }
        }
      }
    }
  }
  JOINT HipLeft
  {
    OFFSET -5.017854 1.085933 0.010174
    CHANNELS 3 Zrotation Xrotation Yrotation
    JOINT KneeLeft
    {
      OFFSET -18.660560 0.716053 -27.036501
      CHANNELS 3 Zrotation Xrotation Yrotation
      JOINT AnkleLeft
      {
        OFFSET 0.461781 -35.190920 6.618806
        CHANNELS 3 Zrotation Xrotation Yrotation
        JOINT FootLeft
        {
          OFFSET -4.329645 -1.122360 -10.724101
          CHANNELS 3 Zrotation Xrotation Yrotation
          End Site
          {
            OFFSET 0 0 0
          }
        }
      }
    }
  }
  JOINT HipRight
  {
    OFFSET 4.518228 1.621733 -5.582882
    CHANNELS 3 Zrotation Xrotation Yrotation
    JOINT KneeRight
    {
      OFFSET -14.528976 1.730192 -26.932859
      CHANNELS 3 Zrotation Xrotation Yrotation
      JOINT AnkleRight
      {
        OFFSET 8.428218 -34.977529 -1.284950
        CHANNELS 3 Zrotation Xrotation Yrotation
        JOINT FootRight
        {
          OFFSET -4.435264 -1.374087 -10.294344
          CHANNELS 3 Zrotation Xrotation Yrotation
          End Site
          {
            OFFSET 0 0 0
          }
        }
      }
    }
  }
}
MOTION
Frames: 8
Frame Time: 0.033333
32.395911 43.505119 368.055936 -0.000000 0.000000 30.392265 -0.000000 0.000000 -30.392265 -0.000000 0.000000 0.000000 -0.000000 0.000000 0.000000 0.000000 0.000000 0.000000 -0.000000 0.000000 0.000000 -0.000000 0.000000 0.000000 -0.000000 0.000000 0.000000 -0.000000 0.000000 0.000000 0.000000 0.000000 0.000000 0.000000 0.000000 0.000000 -0.000000 0.000000 0.000000 -0.000000 0.000000 0.000000 -0.000000 0.000000 0.000000 -0.000000 0.000000 0.000000 0.000000 0.000000 0.000000 0.000000 0.000000 0.000000 -0.000000 0.000000 -30.392265 -0.000000 0.000000 0.000000 -0.000000 0.000000 0.000000 0.000000 0.000000 0.000000 -0.000000 0.000000 -30.392265 -0.000000 0.000000 0.000000 -0.000000 0.000000 0.000000 0.000000 0.000000 0.000000
32.269699 43.464331 368.207134 -0.081862 -0.231023 29.725683 0.185643 0.160030 -29.726107 -0.000000 0.000000 0.000000 -0.000000 0.000000 0.000000 0.000000 0.000000 0.000000 -0.000000 0.000000 0.000000 -0.000000 0.000000 0.000000 0.844545 -1.208935 -2.337116 1.307408 -4.511024 0.397280 0.000000 0.000000 0.000000 0.000000 0.000000 0.000000 -0.000000 0.000000 0.000000 -0.000000 0.000000 0.000000 -2.915144 1.963401 -1.594481 2.970236 -1.878974 1.693163 0.000000 0.000000 0.000000 0.000000 0.000000 0.000000 0.185643 0.160030 -29.726107 -0.000000 0.000000 0.000000 0.728341 -1.977361 0.841206 0.000000 0.000000 0.000000 0.185643 0.160030 -29.726107 -0.000000 0.000000 0.000000 -0.000000 0.000000 0.000000 0.000000 0.000000 0.000000
32.163915 43.431920 368.349501 -0.135701 -0.450974 29.196335 0.338452 0.327480 -29.197836 -0.000000 0.000000 0.000000 -0.000000 0.000000 0.000000 0.000000 0.000000 0.000000 -0.000000 0.000000 0.000000 -0.000000 0.000000 0.000000 1.321863 -1.963755 -3.705162 2.440892 -7.787059 0.455441 0.000000 0.000000 0.000000 0.000000 0.000000 0.000000 -0.000000 0.000000 0.000000 -0.067997 -0.636038 0.707305 -5.330608 4.368649 -3.289481 5.621052 -3.397572 2.984527 0.000000 0.000000 0.000000 0.000000 0.000000 0.000000 0.338452 0.327480 -29.197836 -0.000000 0.000000 0.000000 1.362869 -3.635702 1.613711 0.000000 0.000000 0.000000 0.391936 0.386001 -28.259151 -0.019402 -0.076868 -0.939031 -0.000000 0.000000 0.000000 0.000000 0.000000 0.000000
32.078558 43.407886 368.483035 -0.161536 -0.659927 28.801735 0.459506 0.500455 -28.804672 -0.000000 0.000000 0.000000 -0.290616 -1.026850 -0.052207 0.000000 0.000000 0.000000 -0.000000 0.000000 0.000000 -0.287157 0.761717 0.178924 1.839548 -3.153873 -4.551013 3.351121 -10.217352 0.230373 0.000000 0.000000 0.000000 0.000000 0.000000 0.000000 -0.000000 0.000000 0.000000 -0.199463 -0.901823 1.101938 -7.297486 6.079308 -4.122606 7.890689 -4.575343 3.791481 0.000000 0.000000 0.000000 0.000000 0.000000 0.000000 0.459506 0.500455 -28.804672 0.922595 0.204447 0.174605 0.923967 -5.107377 2.102966 0.000000 0.000000 0.000000 0.536407 0.570213 -27.440512 0.872445 0.205158 -1.320870 -0.901343 -0.323340 -0.047438 0.000000 0.000000 0.000000
32.013629 43.392230 368.607737 -0.159367 -0.857951 28.539966 0.549936 0.677540 -28.544411 -0.000000 0.000000 0.000000 -0.393512 -1.257498 -0.057733 0.000000 0.000000 0.000000 -0.000000 0.000000 0.000000 -0.381370 0.934110 0.263614 1.991530 -3.490977 -4.794075 4.051661 -12.068494 -0.266577 0.000000 0.000000 0.000000 0.000000 0.000000 0.000000 -0.013805 -0.842166 0.067709 -0.383725 -0.293531 1.464790 -8.805618 7.382902 -4.418015 9.727982 -5.431805 4.032988 0.000000 0.000000 0.000000 0.000000 0.000000 0.000000 0.548931 0.844598 -27.725443 1.193999 0.212036 -0.605648 1.056615 -6.092149 2.581992 0.000000 0.000000 0.000000 0.648793 0.746411 -26.782872 1.083024 0.366700 -1.684641 -1.144971 -0.734962 0.806558 0.000000 0.000000 0.000000
31.969127 43.384950 368.723606 -0.129175 -1.045106 28.409722 0.610903 0.857763 -28.415473 -0.000000 0.000000 0.000000 -0.499520 -1.433334 -0.057177 0.000000 0.000000 0.000000 -0.000000 0.000000 0.000000 -0.474817 1.065772 0.360664 1.993700 -3.563359 -4.599848 4.570347 -13.519807 -1.046955 0.000000 0.000000 0.000000 0.000000 0.000000 0.000000 -0.067301 -0.948087 0.092595 -0.596680 -0.392100 1.902194 -9.847832 8.216931 -4.160628 10.956894 -6.134125 4.847490 0.000000 0.000000 0.000000 0.000000 0.000000 0.000000 0.616720 1.005655 -27.355683 1.311311 0.441659 -0.822314 1.052221 -6.640861 2.894292 0.000000 0.000000 0.000000 0.730582 0.913553 -26.283877 1.261301 0.579971 -2.011370 -1.334291 -1.032252 0.969831 0.000000 0.000000 0.000000
31.910580 43.392117 368.831888 -0.113365 -1.199077 28.589929 -0.163454 0.624252 -28.619820 -0.170024 0.227253 -0.043164 0.067196 -1.146157 0.031685 0.000000 0.000000 0.000000 0.724815 0.502772 0.077193 -0.477609 1.058288 0.367396 1.886276 -4.521257 -3.803146 4.935048 -14.269473 -3.842885 0.000000 0.000000 0.000000 0.000000 0.000000 0.000000 0.568014 -0.489687 0.203168 -3.167987 -0.017281 4.014546 -8.254580 6.932517 -1.548155 11.611321 -6.422845 3.147336 0.000000 0.000000 0.000000 0.000000 0.000000 0.000000 0.693761 1.053955 -27.377415 1.234888 0.747976 -0.988509 -0.368028 -3.908207 4.936533 0.000000 0.000000 0.000000 0.815782 0.990926 -26.084436 1.420575 0.818606 -2.354637 -1.530635 -1.310581 1.164709 0.000000 0.000000 0.000000
31.877138 43.404749 368.930545 -0.070085 -1.350876 28.895975 -0.239375 0.705807 -28.927899 -0.203364 0.220387 -0.050743 0.056712 -1.094180 0.057420 0.000000 0.000000 0.000000 0.822944 0.629343 0.088685 -0.548600 1.043445 0.479616 1.532270 -3.340842 -2.887690 4.567999 -13.544481 -2.806902 0.000000 0.000000 0.000000 0.000000 0.000000 0.000000 0.595179 -0.324954 0.235417 -5.064082 -0.096414 5.793376 -5.891866 4.558365 2.429091 10.312973 -5.402471 0.167540 0.000000 0.000000 0.000000 0.000000 0.000000 0.000000 0.751225 1.102279 -27.457561 1.155747 1.220166 -1.221908 1.082469 -7.166418 2.552598 0.000000 0.000000 0.000000 0.872036 1.099320 -26.129186 1.511943 1.212906 -2.537937 -1.629466 -1.769573 1.312484 0.000000 0.000000 0.000000
